{"title":"Hush (1998) Gwyneth Paltrow + Johnathon Schaech (En-Fr subs)","uid":4375253,"size":737179610,"categoryP":"video","categoryS":"movies","magnet":"?xt=urn:btih:7b1d168112909a7cb2bf7225ddb64d23a4b9ec24&amp;dn=Hush+%281998%29+Gwyneth+Paltrow+%2B+Johnathon+Schaech+%28En-Fr+subs%29&amp;tr=udp%3A%2F%2Ftracker.openbittorrent.com%3A80&amp;tr=udp%3A%2F%2Fopen.demonii.com%3A1337&amp;tr=udp%3A%2F%2Ftracker.coppersurfer.tk%3A6969&amp;tr=udp%3A%2F%2Fexodus.desync.com%3A6969","seeders":7,"leechers":1,"uploader":"Kuthumi","files":-1,"time":1220377102,"description":"aka Bloodline (1998) (USA working title)  &lt;a href=&quot;\nhttp://www.imdb.com/title/tt0118744/&quot; rel=&quot;nofollow&quot; target=&quot;_NEW&quot;&gt;\nhttp://www.imdb.com/title/tt0118744/&lt;/a&gt;\n\nOptional English and French? subtitles in separate idx/sub files.\n\nWith Jessica Lange\n\nJackson invites his girlfriend home to his ranch, where his mother starts to reveal less pleasant sides as an old and dark family secret is disclosed.\n\nThis is not my rip, I found it on the net using Piratebay's tracker, so I think it should be found here.\n\nWARNING: The ripper has chosen some fancy codec and other settings that is not tolerated by either of my two standalone DivX players. Convert the file with Dr. DivX or ConvertXtoDVD if you have to. The file plays normally in WMP on my computer with the English subtitles. I have not been able to confirm that the French subtitles are included.\n\nDVDrip Widescreen 688x382, good stereo.\n\nFormat/Info                      : Audio Video Interleave\nFile size                        : 699 MiB\nDuration                         : 1h 35mn\nOveral bit rate                  : 1020 Kbps\nMovie name                       : DVD_VOLUME.Title1.DVDRip\nDirector                         : Marv\nWriting application              : Lavf51.19.0\nProduct                          : DVD_VOLUME\n\nVideo\nFormat                           : AVC\nFormat/Info                      : Advanced Video Codec\nFormat profile                   : &lt;a class=&quot;__cf_email__&quot; href=&quot;/cdn-cgi/l/email-protection&quot; data-cfemail=&quot;5a183b293f3633343f1a166b7469&quot;&gt;[email&amp;#160;protected]&lt;/a&gt;&lt;script cf-hash='f9e31' type=&quot;text/javascript&quot;&gt;\n/* &lt;![CDATA[ */!function(){try{var t=&quot;currentScript&quot;in document?document.currentScript:function(){for(var t=document.getElementsByTagName(&quot;script&quot;),e=t.length;e--;)if(t[e].getAttribute(&quot;cf-hash&quot;))return t[e]}();if(t&amp;&amp;t.previousSibling){var e,r,n,i,c=t.previousSibling,a=c.getAttribute(&quot;data-cfemail&quot;);if(a){for(e=&quot;&quot;,r=parseInt(a.substr(0,2),16),n=2;a.length-n;n+=2)i=parseInt(a.substr(n,2),16)^r,e+=String.fromCharCode(i);e=document.createTextNode(e),c.parentNode.replaceChild(e,c)}}}catch(u){}}();/* ]]&gt; */&lt;/script&gt;\nFormat settings, CABAC           : No\nFormat settings, ReFrames        : 1 frame\nCodec ID                         : H264\nDuration                         : 1h 35mn\nBit rate                         : 911 Kbps\nNominal bit rate                 : 891 Kbps\nWidth                            : 688 pixels\nHeight                           : 382 pixels\nDisplay aspect ratio             : 16/9\nFrame rate                       : 23.976 fps\nResolution                       : 24 bits\nColorimetry                      : 4:2:0\nScan type                        : Progressive\nBits/(Pixel*Frame)               : 0.145\nStream size                      : 625 MiB\nWriting library                  : x264 core 57\nEncoding settings                : cabac=0 / ref=1 / deblock=0:0:0 / analyse=0x1:0 / me=dia / subme=7 / brdo=0 / mixed_ref=0 / me_range=4 / chroma_me=1 / trellis=0 / 8x8dct=0 / cqm=0 / deadzone=21,11 / chroma_qp_offset=0 / threads=4 / nr=0 / decimate=1 / mbaff=0 / bframes=0 / keyint=250 / keyint_min=25 / scenecut=0(pre) / rc=abr / bitrate=891 / ratetol=9.2 / rceq='tex^qComp' / qcomp=0.50 / qpmin=10 / qpmax=31 / qpstep=3 / ip_ratio=1.25\n\nAudio\nFormat                           : MPEG Audio\nFormat version                   : Version 1\nFormat profile                   : Layer 3\nCodec ID                         : 55\nCodec ID/Hint                    : MP3\nDuration                         : 1h 35mn\nBit rate mode                    : Constant\nBit rate                         : 96.0 Kbps\nChannel(s)                       : 2 channels\nSampling rate                    : 48.0 KHz\nResolution                       : 16 bits\nStream size                      : 65.8 MiB\n","torrent":{"xt":"urn:btih:7b1d168112909a7cb2bf7225ddb64d23a4b9ec24","amp;dn":"Hush+%281998%29+Gwyneth+Paltrow+%2B+Johnathon+Schaech+%28En-Fr+subs%29","amp;tr":["udp%3A%2F%2Ftracker.openbittorrent.com%3A80","udp%3A%2F%2Fopen.demonii.com%3A1337","udp%3A%2F%2Ftracker.coppersurfer.tk%3A6969","udp%3A%2F%2Fexodus.desync.com%3A6969"],"infoHash":"7b1d168112909a7cb2bf7225ddb64d23a4b9ec24","infoHashBuffer":{"type":"Buffer","data":[123,29,22,129,18,144,154,124,178,191,114,37,221,182,77,35,164,185,236,36]},"announce":[],"urlList":[]}}